<!--?xml version="1.0" ?-->
<svg id="logo-levego-munkacsoport" xmlns="http://www.w3.org/2000/svg" viewBox="0 0 2501.054 494.975">
	<defs>
		<style>.cls-1{fill:#757679;}.cls-2{fill:#01a5de;}</style>
	</defs>
	<title>logo-levego-munkacsoport-curves</title>
	<path class="cls-1" d="M762.162,333.089h15.087L754.087,464.2h66.936l-2.338,13.387H736.662Z" transform="translate(-148.513 -148.513)"></path>
	<path class="cls-1" d="M882.013,467.173c12.75,0,21.25-4.675,27.412-11.05l9.137,8.925c-8.5,8.712-20.612,14.237-36.549,14.237-26.986,0-45.048-18.7-45.048-43.774,0-27.2,19.974-47.811,45.686-47.811,27.412,0,41.011,19.549,41.436,46.111l-72.248,7.649C854.177,456.761,865.439,467.173,882.013,467.173Zm26.774-42.711c-1.275-12.537-8.712-24.862-26.349-24.862-17.212,0-28.9,12.537-30.812,30.812Z" transform="translate(-148.513 -148.513)"></path>
	<path class="cls-1" d="M940.239,389.612h15.087L970.2,440.4c1.913,5.95,2.55,15.087,2.55,15.087a103.992,103.992,0,0,1,6.587-14.662l31.024-51.211h15.512l-55.248,89.673h-2.55Z" transform="translate(-148.513 -148.513)"></path>
	<path class="cls-1" d="M1078.573,467.173c12.75,0,21.25-4.675,27.412-11.05l9.137,8.925c-8.5,8.712-20.612,14.237-36.549,14.237-26.986,0-45.048-18.7-45.048-43.774,0-27.2,19.974-47.811,45.686-47.811,27.412,0,41.011,19.549,41.437,46.111l-72.248,7.649C1050.737,456.761,1062,467.173,1078.573,467.173Zm26.774-42.711c-1.275-12.537-8.712-24.862-26.349-24.862-17.212,0-28.9,12.537-30.812,30.812Z" transform="translate(-148.513 -148.513)"></path>
	<path class="cls-1" d="M1130,501.81l11.687-7.226c6.8,11.688,15.512,17.638,29.962,17.638,17.424,0,28.262-9.775,32.3-30.387l4.25-21.037c-7.437,11.475-18.7,18.487-32.3,18.487-22.312,0-37.187-17.638-37.187-42.286,0-29.324,20.187-49.3,44.624-49.3,15.937,0,29.324,9.987,33.787,25.924l3.4-24.012h14.45L1218.4,483.535c-5.1,28.474-22.312,41.436-46.749,41.436C1151.25,524.971,1136.588,514.347,1130,501.81Zm83.085-70.974c0-17.212-10.625-30.387-27.412-30.387-19.337,0-32.086,15.513-32.086,36.762,0,17.425,9.987,29.537,26.137,29.537C1198.636,466.748,1212.873,451.873,1213.085,430.836Z" transform="translate(-148.513 -148.513)"></path>
	<path class="cls-1" d="M1247.511,435.724c0-27.412,21.037-48.023,47.6-48.023a43.312,43.312,0,0,1,43.773,43.773c0,27.412-20.824,47.812-47.386,47.812C1266.848,479.285,1247.511,459.948,1247.511,435.724Zm76.5-4.462c0-17.638-11.475-30.812-29.112-30.812-19.124,0-32.511,15.088-32.511,35.487,0,17.849,11.9,30.812,29.324,30.812C1311.259,466.748,1324.008,451.661,1324.008,431.262Zm-23.162-100.51h16.362l-25.924,41.011H1279.6Zm29.111,0h16.362L1320.4,371.763h-11.687Z" transform="translate(-148.513 -148.513)"></path>
	<path class="cls-1" d="M1439.183,331.389h2.125l51.211,83.511,81.81-83.511h2.125l-25.712,146.2h-14.45l16.787-95.41c1.063-6.8,4.038-17.424,4.038-17.424a136.289,136.289,0,0,1-12.75,15.512L1491.456,435.3h-2.337l-33.787-55.461a162.677,162.677,0,0,1-8.5-15.512s-.85,10.624-2.125,17.849l-16.787,95.41h-14.45Z" transform="translate(-148.513 -148.513)"></path>
	<path class="cls-1" d="M1589.633,440.4l8.924-50.786h14.45l-8.712,49.512c-2.975,16.786,3.187,27.411,18.274,27.411,15.725,0,25.924-9.562,29.111-27.411l8.925-49.512h14.45L1662.731,459.1c-.637,4.463.212,6.8,4.25,6.8h8.075l-2.125,11.688h-9.562c-12.962,0-15.937-7.649-14.662-15.512l.212-1.487c-7.225,11.9-17.212,18.911-31.449,18.911C1598.133,479.5,1585.6,464.623,1589.633,440.4Z" transform="translate(-148.513 -148.513)"></path>
	<path class="cls-1" d="M1706.293,389.612h14.449l-3.612,17.637c6.375-11.687,17-19.549,31.237-19.549,19.337,0,32.086,14.874,27.836,39.1l-5.737,32.3c-.85,4.463,0,6.8,4.25,6.8h8.075l-2.125,11.688h-9.774c-12.75,0-17-6.162-14.662-19.55l5.312-29.961c2.976-16.787-3.187-27.412-18.274-27.412-15.937,0-26.137,9.563-29.323,27.412l-8.713,49.511h-14.449Z" transform="translate(-148.513 -148.513)"></path>
	<path class="cls-1" d="M1813.179,477.585h-14.449l26.986-153.421h14.45l-17.425,98.385a128.677,128.677,0,0,1-3.187,12.962l48.448-45.9h17.213l-39.312,37.4,20.4,34.424c2.337,3.825,4.675,4.462,7.862,4.462h5.524l-2.125,11.688H1871.4c-8.287,0-12.962-2.55-17.425-10.625L1835.065,435.3l-17.212,14.662Z" transform="translate(-148.513 -148.513)"></path>
	<path class="cls-1" d="M1895.416,437c0-29.324,19.549-49.3,43.349-49.3,15.512,0,28.474,9.987,32.724,25.924l3.612-24.012h14.45L1977.438,459.1c-.638,4.463.212,6.8,4.25,6.8h8.074l-2.125,11.688h-9.562c-12.963,0-15.725-5.95-14.662-15.3l.637-2.762c-7.649,12.537-18.911,19.762-32.3,19.762C1910.5,479.285,1895.416,462.71,1895.416,437Zm72.035-6.163c0-17.212-9.987-30.387-26.137-30.387-18.7,0-31.024,15.513-31.024,36.762,0,17.425,9.775,29.537,25.074,29.537C1953.427,466.748,1967.451,451.873,1967.451,430.836Z" transform="translate(-148.513 -148.513)"></path>
	<path class="cls-1" d="M2008.889,435.511c0-26.986,20.188-47.811,47.6-47.811,15.725,0,26.774,6.587,33.787,15.725l-10.625,8.5c-5.1-7.013-12.75-11.476-23.162-11.476-19.762,0-32.724,15.088-32.724,35.274,0,17.425,11.262,31.024,28.474,31.024,12.963,0,19.55-5.312,23.375-8.713l8.5,9.563c-6.587,6.162-16.574,11.688-31.874,11.688C2027.376,479.285,2008.889,460.8,2008.889,435.511Z" transform="translate(-148.513 -148.513)"></path>
	<path class="cls-1" d="M2099.2,459.948l11.049-7.013c5.1,8.287,12.537,14.449,25.5,14.449,11.9,0,17.85-4.887,17.85-13.174,0-7.437-6.163-10.412-19.338-17.212-12.537-6.163-21.674-12.75-21.674-25.925,0-15.3,12.537-23.374,28.049-23.374,13.175,0,22.524,5.737,28.262,13.387l-9.987,8.075c-4.25-5.312-8.925-9.775-18.486-9.775-8.287,0-14.237,3.613-14.237,10.625s5.313,10.412,16.574,15.938c12.75,6.162,24.862,12.749,24.862,27.836s-10.838,25.5-32.3,25.5C2117.474,479.285,2105.148,470.785,2099.2,459.948Z" transform="translate(-148.513 -148.513)"></path>
	<path class="cls-1" d="M2186.963,435.724c0-27.412,21.037-48.023,47.6-48.023a43.312,43.312,0,0,1,43.774,43.773c0,27.412-20.825,47.812-47.387,47.812C2206.3,479.285,2186.963,459.948,2186.963,435.724Zm76.5-4.462c0-17.638-11.475-30.812-29.111-30.812-19.125,0-32.512,15.088-32.512,35.487,0,17.849,11.9,30.812,29.324,30.812C2250.711,466.748,2263.461,451.661,2263.461,431.262Z" transform="translate(-148.513 -148.513)"></path>
	<path class="cls-1" d="M2310.85,389.612H2325.3l-3.824,18.063c7.649-12.537,19.549-19.975,33.148-19.975,22.1,0,37.4,17.212,37.4,42.286,0,28.9-19.975,49.3-43.986,49.3-16.787,0-29.749-10.625-34-24.862l-12.112,68.211h-14.449Zm66.3,40.374c0-17.425-10.2-29.537-26.349-29.537-18.912,0-33.149,15.088-33.149,35.912,0,17.424,10.412,30.387,27.2,30.387C2364.186,466.748,2377.147,451.023,2377.147,429.986Z" transform="translate(-148.513 -148.513)"></path>
	<path class="cls-1" d="M2411.149,435.724c0-27.412,21.037-48.023,47.6-48.023a43.312,43.312,0,0,1,43.774,43.773c0,27.412-20.825,47.812-47.387,47.812C2430.486,479.285,2411.149,459.948,2411.149,435.724Zm76.5-4.462c0-17.638-11.475-30.812-29.111-30.812-19.125,0-32.512,15.088-32.512,35.487,0,17.849,11.9,30.812,29.324,30.812C2474.9,466.748,2487.647,451.661,2487.647,431.262Z" transform="translate(-148.513 -148.513)"></path>
	<path class="cls-1" d="M2535.035,389.612h14.449l-4.249,18.912c6.587-13.175,15.725-20.612,27.411-20.612a22.885,22.885,0,0,1,11.475,2.763l-5.737,12.962a16.566,16.566,0,0,0-8.712-2.125c-14.449,0-24.225,10.838-27.624,30.175l-8.075,45.9h-14.449Z" transform="translate(-148.513 -148.513)"></path>
	<path class="cls-1" d="M2596.019,401.938l2.125-12.325h13.174l8.288-45.9h14.236l-8.074,45.9h23.8l-2.125,12.325h-23.8l-8.713,49.086c-1.912,11.05,1.275,15.725,8.288,15.725,5.312,0,8.5-2.125,11.475-4.675l6.8,9.774c-4.463,4.037-10.2,7.438-19.975,7.438-14.024,0-24.649-8.075-20.824-28.9l8.5-48.448Z" transform="translate(-148.513 -148.513)"></path>
	<path class="cls-2" d="M315,334c-7-98-76-131-76-131C246,301,315,334,315,334Z" transform="translate(-148.513 -148.513)"></path>
	<path class="cls-2" d="M382.565,294.884c64.347-74.246,38.891-146.371,38.891-146.371C357.109,222.759,382.565,294.884,382.565,294.884Z" transform="translate(-148.513 -148.513)"></path>
	<path class="cls-2" d="M589,239c-98,7-131,76-131,76C556,308,589,239,589,239Z" transform="translate(-148.513 -148.513)"></path>
	<path class="cls-2" d="M497.116,382.565c74.246,64.347,146.371,38.891,146.371,38.891C569.241,357.109,497.116,382.565,497.116,382.565Z" transform="translate(-148.513 -148.513)"></path>
	<path class="cls-2" d="M477,458c7,98,76,131,76,131C546,491,477,458,477,458Z" transform="translate(-148.513 -148.513)"></path>
	<path class="cls-2" d="M370.544,643.487c64.347-74.246,38.891-146.371,38.891-146.371C345.088,571.362,370.544,643.487,370.544,643.487Z" transform="translate(-148.513 -148.513)"></path>
	<path class="cls-2" d="M203,553c98-7,131-76,131-76C236,484,203,553,203,553Z" transform="translate(-148.513 -148.513)"></path>
	<path class="cls-2" d="M294.884,409.435c-74.246-64.347-146.371-38.891-146.371-38.891C222.759,434.891,294.884,409.435,294.884,409.435Z" transform="translate(-148.513 -148.513)"></path>
</svg>